<?xml version="1.0" standalone="no"?>
<!DOCTYPE svg PUBLIC "-//W3C//DTD SVG 20010904//EN"
 "http://www.w3.org/TR/2001/REC-SVG-20010904/DTD/svg10.dtd">
<svg version="1.0" xmlns="http://www.w3.org/2000/svg"
 width="451.000000pt" height="451.000000pt" viewBox="0 0 451.000000 451.000000"
 preserveAspectRatio="xMidYMid meet">
<metadata>
Created by potrace 1.11, written by Peter Selinger 2001-2013
</metadata>
<g transform="translate(0.000000,451.000000) scale(0.100000,-0.100000)"
fill="#000000" stroke="none">
<path d="M2068 4375 c-2 -2 -37 -5 -78 -8 -112 -9 -264 -32 -282 -43 -4 -3
-17 -7 -27 -9 -93 -18 -385 -147 -427 -190 -9 -8 -19 -15 -23 -15 -4 0 -37
-29 -74 -65 -107 -106 -159 -215 -171 -360 -4 -51 26 -180 48 -204 9 -9 16
-22 16 -27 0 -12 66 -75 101 -97 58 -35 207 -53 232 -28 5 5 -25 26 -67 46
-41 21 -83 49 -91 62 -21 32 -28 93 -15 129 13 34 69 95 81 88 4 -2 10 0 14 6
9 15 93 12 149 -5 27 -8 94 -43 148 -78 54 -34 106 -66 116 -72 139 -80 280
-216 333 -320 35 -68 56 -133 67 -205 5 -37 5 -239 -1 -408 -4 -111 9 -178 55
-282 23 -52 39 -109 54 -190 3 -19 7 -93 9 -165 2 -71 6 -195 9 -275 11 -277
18 -526 19 -687 1 -90 4 -163 7 -163 3 0 6 -127 7 -283 2 -155 3 -282 4 -282
1 0 2 -24 3 -54 1 -53 19 -81 29 -44 4 15 5 15 6 2 1 -16 37 -33 51 -24 4 2
10 33 13 67 6 58 9 75 21 133 7 31 26 108 31 125 3 8 11 39 17 67 7 29 16 53
21 53 4 0 6 4 2 9 -9 15 60 207 97 268 51 84 131 156 191 169 4 1 8 2 10 4 1
1 9 3 17 5 74 18 213 61 248 76 43 20 113 82 144 129 62 91 108 164 108 169 0
4 8 14 18 23 22 21 34 37 58 73 10 17 21 32 24 35 12 10 50 91 50 105 0 8 4
15 8 15 16 0 23 186 8 245 -4 17 -9 66 -12 110 -5 87 2 115 48 182 35 52 35
58 2 36 -15 -9 -43 -18 -63 -19 -66 -3 -146 -16 -166 -26 -10 -6 -26 -12 -35
-13 -16 -1 -71 -26 -80 -35 -17 -19 -145 -91 -195 -111 -106 -41 -243 -153
-303 -248 -9 -15 -19 -28 -22 -31 -19 -18 -97 -178 -102 -210 -1 -3 -7 -19
-14 -35 -15 -37 -23 -102 -29 -255 -4 -109 -10 -169 -21 -250 -3 -19 -7 -51
-9 -70 -5 -48 -12 -96 -20 -131 -4 -17 -8 -40 -10 -52 -8 -57 -16 -103 -22
-117 -3 -8 -7 -24 -8 -35 -2 -11 -6 -33 -10 -50 -4 -16 -8 -37 -9 -45 -18
-110 -29 -160 -33 -156 -3 2 -4 65 -3 138 5 280 2 889 -5 989 -21 293 -9 498
35 617 19 50 79 171 98 196 14 18 79 176 97 236 21 71 26 187 10 275 -18 99
-9 287 15 320 4 6 13 28 20 50 13 40 49 98 90 145 26 30 13 37 -29 16 -68 -35
-128 -49 -226 -51 -55 -1 -104 1 -110 5 -5 4 -27 10 -47 14 -21 4 -38 11 -38
15 0 5 21 4 48 -1 59 -13 230 -17 257 -7 11 4 46 15 78 25 31 9 57 21 57 25 0
5 5 9 11 9 19 0 113 68 175 127 73 69 115 123 117 152 1 12 4 21 8 21 3 0 5
12 3 27 -3 29 -33 75 -49 75 -5 0 -14 3 -20 8 -11 9 -60 6 -87 -5 -21 -8 -22
-5 -6 32 26 64 36 116 33 173 -3 53 -22 113 -34 106 -4 -3 -8 8 -9 24 -4 48
-33 103 -74 142 -39 36 -101 71 -125 71 -7 0 -13 4 -13 9 0 5 -4 7 -9 4 -5 -4
-20 -2 -34 3 -14 5 -45 12 -68 16 -24 3 -52 8 -61 11 -43 13 -371 37 -380 29z
m262 -38 c25 -3 73 -10 107 -17 35 -6 75 -13 90 -16 292 -53 356 -228 189
-521 -30 -54 -115 -134 -171 -163 -66 -34 -87 -37 -105 -15 -10 12 -106 212
-128 265 -3 8 -8 17 -11 20 -3 3 -15 21 -25 40 -46 83 -96 129 -123 111 -27
-18 -30 -45 -11 -110 20 -67 104 -277 118 -296 4 -5 10 -20 13 -33 5 -19 2
-22 -15 -16 -11 3 -26 7 -32 8 -36 8 -104 29 -126 39 -36 17 -144 79 -150 86
-3 3 -22 21 -42 39 -58 54 -55 19 4 -44 85 -91 182 -150 294 -179 72 -19 111
-19 121 -1 10 16 61 27 69 15 3 -5 14 -4 25 1 12 7 26 7 37 2 61 -32 185 41
273 158 35 47 87 147 105 201 l14 44 -4 -54 c-3 -29 -11 -59 -17 -67 -6 -8 -8
-14 -4 -14 3 0 -7 -26 -24 -57 -17 -31 -31 -60 -31 -64 0 -5 16 1 36 13 56 33
161 29 165 -6 9 -83 -23 -138 -137 -236 -102 -88 -195 -133 -314 -154 -46 -8
-87 -13 -90 -11 -4 2 -35 7 -69 10 -75 7 -207 48 -279 87 -56 30 -72 34 -72
18 0 -30 190 -138 295 -168 88 -24 230 -21 298 6 16 7 30 12 32 12 2 0 -12
-30 -31 -67 -59 -117 -83 -272 -60 -395 22 -122 22 -129 12 -208 -14 -103 -58
-214 -169 -426 -29 -54 -38 -75 -62 -139 -4 -11 -9 -31 -11 -45 -2 -14 -6 -52
-11 -85 -9 -72 -9 -222 1 -400 11 -191 15 -1003 6 -980 -4 11 -8 79 -9 150 0
72 -3 204 -7 295 -3 91 -8 237 -10 325 -7 311 -22 710 -29 775 -11 100 -21
140 -62 239 -19 45 -32 86 -29 89 3 3 2 10 -3 16 -6 6 -12 25 -15 41 -2 17 -5
32 -6 35 -4 12 -1 100 5 165 15 149 12 296 -8 375 -22 87 -52 156 -103 235
-63 98 -370 324 -566 416 -32 16 -114 21 -155 10 -71 -19 -134 -93 -138 -161
-4 -67 37 -136 96 -160 32 -14 39 -28 12 -25 -80 9 -158 49 -200 105 -59 76
-83 210 -58 317 46 196 174 325 445 447 122 55 341 112 458 121 24 1 45 5 48
8 6 5 289 1 354 -6z m-128 -344 c15 -15 28 -33 28 -40 0 -7 5 -13 10 -13 6 0
10 -6 10 -14 0 -8 3 -16 8 -18 8 -3 25 -39 160 -320 2 -5 -21 -8 -51 -8 -56 0
-56 0 -75 43 -20 42 -46 108 -47 117 0 3 -7 16 -14 29 -40 71 -86 251 -65 251
4 0 21 -12 36 -27z m527 -245 c-7 -13 -40 -50 -73 -84 -63 -63 -106 -93 -106
-74 0 5 5 10 10 10 12 0 17 4 76 54 23 20 54 54 69 76 30 44 43 53 24 18z
m-559 -167 c0 -5 -9 -7 -20 -4 -11 3 -20 7 -20 9 0 2 9 4 20 4 11 0 20 -4 20
-9z m90 -28 c9 -9 -65 9 -74 18 -5 4 8 3 30 -2 21 -6 41 -13 44 -16z m-55
-233 c3 -6 -1 -7 -9 -4 -18 7 -21 14 -7 14 6 0 13 -4 16 -10z m1100 -1196
c-79 -64 -165 -154 -165 -173 0 -5 -3 -11 -7 -13 -14 -5 -60 -82 -107 -176
-67 -133 -151 -264 -320 -496 -143 -196 -222 -354 -214 -425 3 -25 4 -24 22
14 24 51 98 169 108 173 4 2 8 8 8 13 0 6 68 101 151 211 185 247 195 263 321
498 13 25 31 56 39 70 9 14 35 58 59 98 23 40 66 96 96 125 58 58 144 122 144
109 0 -5 -3 -12 -7 -16 -19 -19 -27 -121 -14 -186 43 -220 26 -304 -102 -480
-33 -47 -65 -86 -69 -88 -4 -2 -8 -10 -8 -17 0 -7 -4 -15 -8 -17 -4 -1 -25
-30 -45 -63 -20 -33 -49 -74 -64 -91 -30 -33 -108 -80 -146 -88 -12 -3 -38
-10 -57 -16 -19 -6 -46 -13 -59 -16 -119 -24 -218 -84 -280 -168 -36 -50 -85
-143 -96 -186 0 -3 -6 -21 -13 -41 -7 -20 -15 -45 -17 -55 -6 -23 -34 -133
-40 -154 -2 -8 -9 -28 -14 -45 l-10 -30 3 35 c2 19 12 69 21 110 25 113 25
113 29 140 11 67 20 116 22 130 5 25 12 72 18 125 4 28 9 62 12 76 7 38 15
152 19 269 3 99 11 176 22 193 2 4 7 19 9 33 3 15 20 58 39 98 90 190 214 321
360 381 39 16 100 48 137 72 114 72 200 110 256 112 18 1 12 -8 -33 -45z m-18
-54 c-36 -32 -118 -145 -158 -220 -13 -25 -26 -47 -29 -50 -9 -9 -30 -44 -40
-67 -5 -13 -14 -23 -19 -23 -13 0 51 130 101 205 40 60 155 185 171 185 4 0
-8 -13 -26 -30z m-247 -376 c0 -4 -13 -29 -30 -56 -16 -26 -30 -51 -30 -54 0
-3 -10 -20 -22 -37 -13 -18 -31 -47 -41 -66 -10 -19 -25 -41 -34 -49 -8 -8
-22 -27 -31 -41 -22 -35 -131 -179 -159 -211 -13 -13 -23 -28 -23 -32 0 -3 -6
-13 -14 -20 -7 -8 -28 -36 -45 -64 -17 -27 -31 -44 -31 -38 0 16 84 143 194
292 51 70 114 161 141 202 89 139 100 155 108 158 4 2 5 8 1 13 -3 5 0 9 5 9
6 0 11 -3 11 -6z m-729 -1217 c-10 -9 -11 -8 -5 6 3 10 9 15 12 12 3 -3 0 -11
-7 -18z m6 -54 c-3 -10 -5 -4 -5 12 0 17 2 24 5 18 2 -7 2 -21 0 -30z m70 -55
c-3 -8 -6 -5 -6 6 -1 11 2 17 5 13 3 -3 4 -12 1 -19z m-64 -58 c3 -11 1 -20
-4 -20 -5 0 -9 9 -9 20 0 11 2 20 4 20 2 0 6 -9 9 -20z m-6 -62 c-3 -7 -5 -2
-5 12 0 14 2 19 5 13 2 -7 2 -19 0 -25z m0 -40 c-3 -8 -6 -5 -6 6 -1 11 2 17
5 13 3 -3 4 -12 1 -19z"/>
</g>
</svg>
